<?xml version="1.0" encoding="UTF-8"?>
<svg id="Layer_1" data-name="Layer 1" xmlns="http://www.w3.org/2000/svg" viewBox="0 0 150 150">
  <defs>
    <style>
      .cls-1 {
        fill: #ffcf01;
      }

      .cls-2 {
        fill: #005596;
      }

      .cls-3 {
        fill: none;
      }
    </style>
  </defs>
  <path class="cls-3" d="M0,0H150V150H0V0Z"/>
  <path class="cls-2" d="M125.11,21.43l-.3-1.28-1.17-.62c-12.89-6.75-41.31-9.04-47.79-9.04s-34.91,2.27-47.8,9.04l-1.17,.6-.3,1.28c-3.33,16.17-4.05,32.78-2.13,49.18,1.93,15.34,6.34,28.75,13.22,39.82,8.68,13.93,21.15,24.16,37.13,30.38l1.05,.41,1.05-.41c15.99-6.23,28.48-16.45,37.12-30.38,6.88-11.07,11.32-24.46,13.21-39.82,1.92-16.4,1.19-33-2.14-49.17Zm-49.26,116.68C8.35,111.81,29.4,22.11,29.4,22.11c12.19-6.41,39.82-8.68,46.45-8.68s34.26,2.29,46.45,8.68c0-.02,21.02,89.69-46.45,115.98v.02Z"/>
  <path class="cls-2" d="M33.6,88.22h0v-.03s0,.02,0,.03Z"/>
  <path class="cls-2" d="M30.78,76.31s-.03,0-.05,.02c-.31-1.69-.51-3.13-.63-3.92h0c.19,1.3,.42,2.62,.67,3.91Z"/>
  <polygon class="cls-2" points="60.74 70.93 59.96 75.03 59.94 75.03 60.73 70.93 60.74 70.93"/>
  <path class="cls-2" d="M32.9,85.69c-.23-.79-.44-1.59-.64-2.38,0,0,.03,0,.04,0,.22,.9,.42,1.7,.6,2.39Z"/>
  <path class="cls-2" d="M59.59,76.85l-.64,3.48s-.03,0-.04,0l.67-3.49Z"/>
  <path class="cls-1" d="M33.59,88.19v.03h0s0-.02,0-.03Z"/>
  <path class="cls-2" d="M43.36,20.96c.78,4.64,7.18,42.35,7.78,45.94-3.67,.71-7.45,1.57-11.11,2.54-.23-1.28-7.61-41.84-8.1-44.55h-.06c-4.16,20.75-4.24,42.99,1.72,63.33v-.03c2.94,10.18,8.02,19.63,14.88,27.7-.66-3.65-5.3-29.1-5.83-32.1,3.6-1.01,7.24-1.86,10.93-2.56,.36,2.09,2.05,12.18,2.43,14.47,1.91-10.09,15.15-78.73,15.15-78.73-9.34,.65-18.63,1.98-27.78,3.98Z"/>
  <path class="cls-2" d="M79.64,68.49c-.13-.6-.72-3.44-.87-4.05h-5.79c-.13,.61-.73,3.45-.86,4.05,1.36,0,2.59-.07,3.77-.07s2.37,.02,3.74,.07Z"/>
  <path class="cls-2" d="M75.88,73.73c1.44,0,2.97,0,4.82,.13l-.77-3.97h-.1c-1.51-.11-2.8-.11-3.95-.11s-2.46,0-3.97,.09h-.08l-.79,3.98h0c1.89-.08,3.42-.12,4.84-.12Z"/>
  <path class="cls-2" d="M81.76,79.25l-.79-3.99h-.08c-1.93-.1-3.53-.14-5.03-.14s-3.13,0-5.08,.14h0l-.79,3.98c2.13-.12,4.04-.16,5.83-.16s3.81,.07,5.94,.17Z"/>
  <path class="cls-2" d="M75.86,49.91l-15.38,76.77c4.8,3.33,9.98,6.07,15.43,8.17,5.45-2.1,10.63-4.85,15.43-8.19l-15.48-76.75Z"/>
  <path class="cls-2" d="M122.44,64.36c.95-13.19,.09-26.47-2.56-39.45l-8.09,44.56c-3.63-.96-7.44-1.79-11.11-2.52l7.79-45.98c-9.15-2.01-18.44-3.34-27.79-3.99l15.16,78.73c.59-3.55,1.82-10.92,2.42-14.43,3.59,.71,7.41,1.57,10.91,2.59l-5.81,31.97c6.04-7.14,10.69-15.33,13.72-24.16h0s1.22-3.5,2.44-8.33h0c1.33-5.24,2.74-12.28,2.91-18.99Z"/>
  <path class="cls-1" d="M78.47,63.03h-5.23l-.29,1.39h5.79s-.26-1.39-.27-1.39Z"/>
  <path class="cls-1" d="M81.76,79.25c-4.28-.22-7.5-.21-11.77,0l-.26,1.4h0c4.41-.25,7.84-.25,12.25,0l-.21-1.4Z"/>
  <path class="cls-1" d="M79.64,68.49c-2.77-.03-4.77-.14-7.53,0l-.28,1.4c3.1-.1,5-.13,8.1,0l-.29-1.39Z"/>
  <path class="cls-1" d="M80.7,73.87c-3.76-.15-5.87-.21-9.64,0h0c.03,.18-.26,1.23-.23,1.41h0c3.91-.17,6.26-.23,10.17,0l-.3-1.41Z"/>
  <path class="cls-1" d="M63.71,36.99s1.61-1.51,1.61-2.98c0-3.33-1.78-3.1-2.56-3.1-1.78,0-4.21,2.78-4.21,2.78,.27-.61,.73-1.69,.87-2.02,.06-.13,.13-.31,.2-.49,.39-.97,.41-2.06,.07-3.05-.41-1.28-1.3-1.83-2.02-2.73s-1.07-1.26-1.07-1.26c0,0-.28,.32-1.06,1.28s-1.61,1.45-2.02,2.73c-.34,1-.31,2.08,.09,3.06,.07,.19,.14,.36,.2,.49,.13,.34,.6,1.42,.87,2.02,0,0-2.43-2.78-4.21-2.78-.77,0-2.56-.22-2.56,3.1,0,1.47,1.61,2.98,1.61,2.98,0,0,.23-1.2,1.99-1.2,1.21,0,2.02,1.26,2.02,2.69,0,1.17-.24,2.15-.53,2.28,.57,.39,1.12,.8,1.64,1.24,.37,.37,1.99,2.32,1.99,2.32,0,0,1.62-1.93,1.99-2.32,.53-.44,1.08-.86,1.65-1.24-.29-.13-.53-1.1-.53-2.28,0-1.42,.82-2.69,2.02-2.69,1.75,0,1.99,1.17,1.99,1.17Z"/>
  <path class="cls-1" d="M76.8,119.55c-.16,1.26,.73,2.42,2,2.58,.11,.01,.22,.02,.33,.02,1.65,0,5.79-1.6,6.1-8.02,.24-4.7-1.13-5.94-1.13-5.94l-2.53,4.61c0,6.62-4.77,6.76-4.77,6.76Z"/>
  <path class="cls-1" d="M70.12,112.8l-2.53-4.61s-1.36,1.24-1.17,5.95c.33,6.42,4.45,8.02,6.09,8.02,1.28,.01,2.33-1.01,2.34-2.29,0-.1,0-.2-.02-.31,0,0-4.72-.15-4.72-6.77Z"/>
  <path class="cls-1" d="M78.48,113.64c-.06-2.2,.19-4.41,.76-6.54,.4-1.45,2.89-2.97,2.89-2.97-2.49-2.77-4.67,.96-4.57,.52,.05-1.07-.16-2.14-.6-3.12-.29-.61-.65-1.18-1.07-1.71-.41,.53-.77,1.1-1.06,1.71-.44,.98-.64,2.05-.6,3.12,.09,.46-2.08-3.29-4.57-.52,0,0,2.45,1.52,2.89,2.97,.57,2.13,.83,4.33,.76,6.54,0,2.57,1.36,3.26,1.99,3.54v6.84h1.17v-6.75c.45-.23,2.04-.87,2.01-3.63Z"/>
  <polygon class="cls-1" points="91.21 39.26 91.08 39.95 94.18 38.16 94.18 44.25 94.88 44.25 94.97 44.25 95.69 44.25 95.69 38.16 98.79 39.95 98.65 39.26 101.94 39.19 100.35 36.32 101.02 36.09 99.39 35.15 103.41 32.83 102.74 32.61 104.33 29.72 101.05 29.66 101.18 28.96 97.08 31.32 97.08 26.6 96.55 27.06 94.93 24.25 93.31 27.06 92.77 26.6 92.77 31.32 88.68 28.96 88.82 29.66 85.53 29.72 87.11 32.61 86.45 32.83 90.47 35.15 88.84 36.09 89.51 36.32 87.92 39.19 91.21 39.26"/>
  <path class="cls-1" d="M62.05,63.8c-3.62,.4-7.37,.96-11.16,1.71-3.71,.71-7.45,1.57-11.13,2.55-3.37,.9-6.67,1.93-9.8,2.95,.01,.41,.1,.84,.14,1.25h0v.12c10.02-3.34,21.2-5.95,31.7-7.15l.28-1.43h-.04Z"/>
  <path class="cls-1" d="M58.92,80.33c-8.77,1.29-17.42,3.42-25.73,6.5l.4,1.36h0c1.93-.73,5.19-1.85,9.3-3.01,3.56-.96,7.23-1.86,10.91-2.56,1.7-.32,3.29-.59,4.82-.83l.32-1.46h-.02Z"/>
  <path class="cls-1" d="M60.99,69.38c-2.89,.37-5.98,.85-9.06,1.44-7.05,1.26-14.49,3.2-21.2,5.43v.13h0l.2,1.17h0v.14h0c9.78-3.31,19.57-5.47,29.65-6.84v-.13h0l.23-1.2h0v-.13l.18-.02Z"/>
  <path class="cls-1" d="M59.92,74.93c-9.29,1.37-19.18,3.71-27.98,6.91,.08,.45,.26,.9,.27,1.36h0c8.7-3.12,18.26-5.57,27.44-6.94l.27-1.44v.11Z"/>
  <path class="cls-1" d="M112.04,68.11c-3.67-.96-7.42-1.85-11.12-2.56-3.78-.73-7.54-1.31-11.16-1.72h0c-.02,.18,.24,1.25,.22,1.43,10.52,1.17,21.56,3.92,31.63,7.17,.05-.45,.16-.89,.17-1.38-3.1-1.04-6.38-2.03-9.75-2.94Z"/>
  <path class="cls-1" d="M118.38,86.82c-7.95-2.94-17.03-5.18-25.43-6.43h0c-.03,.18,.26,1.27,.23,1.45,1.57,.24,3.15,.51,4.82,.83,3.66,.7,7.34,1.57,10.9,2.57,3.2,.91,6.32,1.93,9.26,3.01,.03-.45,.3-.88,.33-1.34l-.11-.09Z"/>
  <path class="cls-1" d="M120.88,76.33c-9.57-3.19-20.14-5.5-30.16-6.8h0c-.03,.18,.25,1.16,.22,1.34,9.98,1.23,20.25,3.79,29.8,6.87,.02-.46,.19-.9,.2-1.37l-.06-.04Z"/>
  <path class="cls-1" d="M119.68,81.93c-8.92-3.16-18.58-5.68-27.93-6.94-.03,.18,.26,1.26,.23,1.44,5.88,.83,12.01,2.24,17.75,3.84h0c3.3,.94,6.55,1.97,9.7,3.11,0-.48,.31-.96,.24-1.45Z"/>
</svg>